<svg width="1440" height="1005" viewBox="0 0 1440 1005" fill="none" xmlns="http://www.w3.org/2000/svg">
<path d="M-20 731C14.9244 681.592 142.707 580.975 374.44 573.764C664.107 564.75 722.041 599.803 803.394 512.171C868.477 442.066 1268.92 524.023 1461 573.764" stroke="#2B2828" stroke-width="6" stroke-linecap="round" stroke-linejoin="round"/>
<path d="M10 943C44.9244 893.592 172.707 792.975 404.44 785.764C694.107 776.75 752.041 811.803 833.394 724.171C898.477 654.066 1298.92 736.023 1491 785.764" stroke="#2B2828" stroke-width="6" stroke-linecap="round" stroke-linejoin="round"/>
<path d="M0 1046C34.9244 996.592 162.707 895.975 394.44 888.764C684.107 879.75 742.041 914.803 823.394 827.171C888.477 757.066 1288.92 839.023 1481 888.764" stroke="#2B2828" stroke-width="6" stroke-linecap="round" stroke-linejoin="round"/>
<path d="M0 1155C34.9244 1105.59 162.707 1004.97 394.44 997.764C684.107 988.75 742.041 1023.8 823.394 936.171C888.477 866.066 1288.92 948.023 1481 997.764" stroke="#2B2828" stroke-width="6" stroke-linecap="round" stroke-linejoin="round"/>
<path d="M-20 389C14.9244 339.592 142.707 238.975 374.44 231.764C664.107 222.75 722.041 257.803 803.394 170.171C868.477 100.066 1268.92 182.023 1461 231.764" stroke="#2B2828" stroke-width="6" stroke-linecap="round" stroke-linejoin="round"/>
<path d="M-11 525C23.9244 475.592 151.707 374.975 383.44 367.764C673.107 358.75 731.041 393.803 812.394 306.171C877.477 236.066 1277.92 318.023 1470 367.764" stroke="#2B2828" stroke-width="6" stroke-linecap="round" stroke-linejoin="round"/>
<path d="M-20 635C14.9244 585.592 142.707 484.975 374.44 477.764C664.107 468.75 722.041 503.803 803.394 416.171C868.477 346.066 1268.92 428.023 1461 477.764" stroke="#2B2828" stroke-width="6" stroke-linecap="round" stroke-linejoin="round"/>
<path d="M0 830C34.9244 780.592 162.707 679.975 394.44 672.764C684.107 663.75 742.041 698.803 823.394 611.171C888.477 541.066 1288.92 623.023 1481 672.764" stroke="#2B2828" stroke-width="6" stroke-linecap="round" stroke-linejoin="round"/>
<path d="M-41 249C-6.0756 199.592 121.707 98.9748 353.44 91.7639C643.107 82.7504 701.041 117.803 782.394 30.1715C847.477 -39.9338 1247.92 42.0226 1440 91.7639" stroke="#2B2828" stroke-width="6" stroke-linecap="round" stroke-linejoin="round"/>
</svg>
